<svg width="30" height="30" viewBox="0 0 30 30" fill="none" xmlns="http://www.w3.org/2000/svg">
<path d="M22.7082 17.9747C21.8686 17.7941 21.2044 18.1839 20.6162 18.5244C20.0139 18.8752 18.8686 19.8043 18.2121 19.5666C14.851 18.1827 11.6899 15.2408 10.3214 11.8662C10.0802 11.1957 11.005 10.0431 11.3532 9.43371C11.6911 8.84377 12.0729 8.17327 11.8988 7.32736C11.7414 6.5672 9.70621 3.97747 8.98654 3.2693C8.5119 2.80151 8.02566 2.54422 7.52654 2.50263C5.64994 2.42207 3.55409 4.92605 3.18651 5.52507C2.26562 6.8024 2.27079 8.50203 3.20199 10.5629C5.44616 16.0984 13.934 24.4523 19.4902 26.7808C20.5156 27.2603 21.4532 27.5007 22.2955 27.5007C23.1196 27.5007 23.8535 27.2707 24.4843 26.8147C24.9601 26.5404 27.5667 24.3406 27.4984 22.4136C27.4571 21.9223 27.2005 21.4312 26.7388 20.9556C26.0358 20.2292 23.4627 18.1333 22.7082 17.9747Z" fill="#64646A"/>
</svg>
