<svg width="150" height="150" viewBox="0 0 150 150" fill="none" xmlns="http://www.w3.org/2000/svg">
<path d="M125.625 78.7087C124.944 77.9296 124.367 77.0796 123.892 76.1821C123.658 100.304 103.965 119.857 79.7891 119.857C55.4681 119.857 35.6811 100.07 35.6811 75.7488C35.6811 51.4279 55.4681 31.6409 79.7891 31.6409C100.711 31.6409 118.278 46.2847 122.779 65.8604L126.773 36.1669L126.863 35.4993C115.489 22.2161 98.6066 13.7828 79.7891 13.7828C65.1083 13.7828 51.6058 18.918 40.9772 27.4822V28.1234V28.691V41.268V41.7673C40.9772 50.1681 36.6231 57.8378 29.7335 62.2204V111.382V112.229C41.0142 127.665 59.2485 137.714 79.7891 137.714C101.373 137.714 120.412 126.619 131.51 109.834V108.926V82.594C129.259 81.8615 127.218 80.5307 125.625 78.7087Z" fill="#64646A"/>
<path d="M79.7891 39.1372C59.6013 39.1372 43.177 55.5611 43.177 75.7493C43.177 95.9376 59.6008 112.361 79.7891 112.361C99.9774 112.361 116.401 95.9376 116.401 75.7493C116.401 55.5611 99.9769 39.1372 79.7891 39.1372Z" fill="#64646A"/>
<path d="M149.833 7.23393C149.833 4.0437 147.247 1.45764 144.057 1.45764C141.164 1.45764 138.718 3.59695 138.332 6.46386L129.892 69.2034C129.67 70.855 130.172 72.5216 131.268 73.7759C132.365 75.0302 133.95 75.7493 135.617 75.7493H139.006V143.045C139.006 146.081 141.467 148.542 144.503 148.542C147.538 148.542 149.999 146.081 149.999 143.045L149.833 7.23393Z" fill="#64646A"/>
<path d="M33.4814 8.45372C33.4814 6.38338 31.8038 4.70581 29.7334 4.70581C27.6631 4.70581 25.9855 6.38338 25.9855 8.45372V29.1917H20.4886V8.45372C20.4886 6.38338 18.811 4.70581 16.7407 4.70581C14.6703 4.70581 12.9928 6.38338 12.9928 8.45372V29.1917H7.49583V8.45372C7.49583 6.38338 5.81826 4.70581 3.74791 4.70581C1.67757 4.70581 0 6.38338 0 8.45372V42.2679C0 49.5733 4.70588 55.7969 11.2437 58.0771V143.045C11.2437 146.081 13.7049 148.542 16.7407 148.542C19.7765 148.542 22.2376 146.081 22.2376 143.045V58.0771C28.7755 55.7969 33.4814 49.5733 33.4814 42.2679V8.45372Z" fill="#64646A"/>
</svg>
