<svg width="20" height="20" viewBox="0 0 20 20" fill="none" xmlns="http://www.w3.org/2000/svg">
<path d="M19.947 7.179C19.818 6.801 19.477 6.534 19.079 6.503L13.378 6.05L10.911 0.589C10.75 0.23 10.393 0 10 0C9.60701 0 9.25001 0.23 9.08901 0.588L6.62201 6.05L0.921009 6.503C0.530009 6.534 0.193009 6.791 0.0600093 7.16C-0.0729907 7.529 0.0210094 7.942 0.302009 8.216L4.51501 12.323L3.02501 18.775C2.93301 19.174 3.09401 19.589 3.43101 19.822C3.60301 19.94 3.80101 20 4.00001 20C4.19301 20 4.38701 19.944 4.55501 19.832L10 16.202L15.445 19.832C15.793 20.064 16.25 20.055 16.59 19.808C16.928 19.561 17.077 19.128 16.962 18.726L15.133 12.326L19.669 8.244C19.966 7.976 20.075 7.558 19.947 7.179Z" fill="#FFB700"/>
</svg>
