<svg width="150" height="150" viewBox="0 0 150 150" fill="none" xmlns="http://www.w3.org/2000/svg">
<g clip-path="url(#clip0_1_112)">
<path d="M116.158 51.6431C114.487 50.5733 113.615 48.6526 113.937 46.7507C118.043 22.3889 99.2328 0.345636 75.0324 0.0040446C49.8344 -0.3535 30.5414 22.3538 35.0644 47.2453C35.4022 49.1156 34.6421 51.0331 33.1281 52.1279C28.9395 55.1591 26.6247 60.058 26.9375 65.2254C27.754 78.7148 44.6458 84.2447 53.3326 74.0623C53.4546 74.1374 53.5797 74.2156 53.7017 74.2879C54.978 75.0605 55.7381 76.3803 55.7381 77.8195V84.2853C55.7381 86.7378 56.711 89.0273 58.4784 90.7321C64.1099 96.165 73.656 92.2689 73.656 84.1289V69.4765C73.656 65.9073 77.8227 64.0148 80.3627 66.4832C81.1385 67.2371 81.5639 68.2443 81.5639 69.3201V76.8276C81.5639 81.8523 85.7127 85.9598 90.8513 85.7837C97.6049 85.5331 99.0407 80.4284 99.413 76.5523C109.14 83.4198 122.636 76.7237 123.08 64.866C123.277 59.5666 120.625 54.4991 116.158 51.6431ZM68.3382 20.8908C66.2014 21.6028 66.0666 21.9791 65.1256 21.9791C62.4501 21.9791 61.6559 18.3308 64.0683 17.2087C64.9442 16.8021 65.8513 16.4423 66.7679 16.1389C68.0817 15.7041 69.4956 16.4173 69.9304 17.7311C70.3621 19.0421 69.652 20.4588 68.3382 20.8908ZM52.6601 37.1223C51.0356 37.1223 49.8397 35.6021 50.2264 34.0224C51.1179 30.4 52.8446 26.9528 55.2282 24.0593C56.1041 22.9926 57.6838 22.8393 58.7505 23.7152C59.8172 24.5942 59.9705 26.1708 59.0915 27.2375C57.1833 29.5585 55.8007 32.3144 55.0875 35.2173C54.8091 36.3594 53.7862 37.1223 52.6601 37.1223ZM104.392 83.97C105.863 84.2469 106.714 85.799 106.163 87.1907L83.7752 143.717C80.4644 152.093 68.4499 152.097 65.1378 143.717L42.8168 87.3653C42.245 85.922 43.1831 84.337 44.7209 84.1227C45.7316 83.9816 46.736 83.7636 47.7239 83.4664C49.176 83.0297 50.6612 84.0126 50.8054 85.5219C51.0387 87.9646 51.9174 91.3608 55.0027 94.336C62.6694 101.729 74.8312 97.99 77.9259 88.7379C78.4586 87.1451 80.4134 86.617 81.7181 87.6743C87.8239 92.6227 97.5251 91.6677 101.927 84.9554C102.415 84.2121 103.333 83.7705 104.392 83.97Z" fill="#64646A"/>
</g>
<defs>
<clipPath id="clip0_1_112">
<rect width="150" height="150" fill="white"/>
</clipPath>
</defs>
</svg>
