<svg width="30" height="30" viewBox="0 0 30 30" fill="none" xmlns="http://www.w3.org/2000/svg">
<path d="M6.22874 8.99637C7.73924 8.99637 8.96374 7.77187 8.96374 6.26137C8.96374 4.75087 7.73924 3.52637 6.22874 3.52637C4.71824 3.52637 3.49374 4.75087 3.49374 6.26137C3.49374 7.77187 4.71824 8.99637 6.22874 8.99637Z" fill="#64646A"/>
<path d="M11.5462 11.0688V26.2426H16.2575V18.7388C16.2575 16.7588 16.63 14.8413 19.085 14.8413C21.5062 14.8413 21.5362 17.1051 21.5362 18.8638V26.2438H26.25V17.9226C26.25 13.8351 25.37 10.6938 20.5925 10.6938C18.2987 10.6938 16.7612 11.9526 16.1325 13.1438H16.0687V11.0688H11.5462ZM3.86874 11.0688H8.58749V26.2426H3.86874V11.0688Z" fill="#64646A"/>
</svg>
