<svg width="28" height="28" viewBox="0 0 28 28" fill="none" xmlns="http://www.w3.org/2000/svg">
<path d="M22.385 17.39C22.2644 17.5136 22.1722 17.662 22.115 17.825C22.0772 17.9979 22.0772 18.177 22.115 18.35L23 24.245C23.0789 24.705 23.0269 25.178 22.85 25.61C22.6703 26.0464 22.3681 26.4215 21.98 26.69C21.5952 26.9604 21.1441 27.1211 20.675 27.155C20.2077 27.1741 19.7446 27.0597 19.34 26.825L14.555 24.17C14.3948 24.0798 14.2138 24.0333 14.03 24.035C13.8414 24.0334 13.6556 24.0799 13.49 24.17L8.73499 26.825C8.32057 27.047 7.85487 27.1557 7.38499 27.14C7.03713 27.1172 6.69785 27.0221 6.38886 26.8607C6.07987 26.6993 5.80796 26.4752 5.59054 26.2027C5.37311 25.9302 5.21496 25.6154 5.12618 25.2783C5.03741 24.9411 5.01997 24.5892 5.07499 24.245L6.03499 18.35C6.08011 18.1779 6.08011 17.9971 6.03499 17.825C5.98896 17.6604 5.90111 17.5105 5.77999 17.39L1.56499 13.145C1.25042 12.8129 1.02807 12.4044 0.919988 11.96C0.800169 11.518 0.800169 11.052 0.919988 10.61C1.08599 10.1743 1.36569 9.79099 1.72999 9.49998C2.08185 9.20374 2.50651 9.00694 2.95999 8.92998L8.49499 8.08998C8.6736 8.05783 8.84274 7.98607 8.98999 7.87998C9.13598 7.7686 9.25408 7.62482 9.33499 7.45998L11.735 2.29998C11.9339 1.87007 12.2513 1.50582 12.65 1.24998C13.0514 0.995174 13.517 0.859863 13.9925 0.859863C14.4679 0.859863 14.9336 0.995174 15.335 1.24998C15.7337 1.50582 16.0511 1.87007 16.25 2.29998L18.665 7.45998C18.7411 7.62784 18.8601 7.77269 19.01 7.87998C19.1556 7.98897 19.3254 8.06102 19.505 8.08998L25.04 8.92998C25.4935 9.00694 25.9181 9.20374 26.27 9.49998C26.6145 9.80259 26.8731 10.1906 27.02 10.625C27.1398 11.067 27.1398 11.533 27.02 11.975C26.9119 12.4194 26.6896 12.8279 26.375 13.16L22.385 17.39Z" fill="#1B1B1D"/>
</svg>
