<svg width="30" height="30" viewBox="0 0 30 30" fill="none" xmlns="http://www.w3.org/2000/svg">
<path d="M24.5412 9.99618C24.5575 10.2149 24.5575 10.4324 24.5575 10.6499C24.5575 17.3062 19.4912 24.9762 10.2325 24.9762C7.38 24.9762 4.73 24.1499 2.5 22.7149C2.905 22.7612 3.295 22.7774 3.71625 22.7774C6.07 22.7774 8.23625 21.9824 9.9675 20.6262C7.75375 20.5799 5.89875 19.1299 5.25875 17.1349C5.57 17.1812 5.8825 17.2124 6.21 17.2124C6.66125 17.2124 7.115 17.1499 7.53625 17.0412C5.2275 16.5737 3.49875 14.5474 3.49875 12.0999V12.0374C4.17 12.4112 4.94875 12.6449 5.77375 12.6762C4.4175 11.7737 3.52875 10.2299 3.52875 8.48368C3.52875 7.54868 3.7775 6.69118 4.21375 5.94368C6.6925 8.99743 10.4187 10.9937 14.5963 11.2124C14.5188 10.8374 14.4712 10.4487 14.4712 10.0587C14.4712 7.28368 16.7162 5.02368 19.5062 5.02368C20.9562 5.02368 22.265 5.63118 23.185 6.61368C24.3225 6.39493 25.4125 5.97368 26.38 5.39743C26.0063 6.56618 25.21 7.54868 24.1663 8.17243C25.18 8.06243 26.1625 7.78243 27.065 7.39243C26.38 8.38993 25.5237 9.27868 24.5412 9.99618Z" fill="#64646A"/>
</svg>
